<svg width="11" height="22" viewBox="0 0 11 22" fill="none" xmlns="http://www.w3.org/2000/svg">
<path fill-rule="evenodd" clip-rule="evenodd" d="M9.99697 0.150105C10.2454 0.369347 10.2691 0.748506 10.0499 0.99698L1.40017 10.8L10.0499 20.603C10.2691 20.8515 10.2454 21.2307 9.99697 21.4499C9.7485 21.6692 9.36934 21.6455 9.1501 21.397L0.150097 11.197C-0.0500324 10.9702 -0.0500324 10.6298 0.150097 10.403L9.1501 0.203034C9.36934 -0.0454402 9.7485 -0.0691376 9.99697 0.150105Z" fill="#282828"/>
<path fill-rule="evenodd" clip-rule="evenodd" d="M9.99697 0.150105C10.2454 0.369347 10.2691 0.748506 10.0499 0.99698L1.40017 10.8L10.0499 20.603C10.2691 20.8515 10.2454 21.2307 9.99697 21.4499C9.7485 21.6692 9.36934 21.6455 9.1501 21.397L0.150097 11.197C-0.0500324 10.9702 -0.0500324 10.6298 0.150097 10.403L9.1501 0.203034C9.36934 -0.0454402 9.7485 -0.0691376 9.99697 0.150105Z" fill="black" fill-opacity="0.2"/>
<path fill-rule="evenodd" clip-rule="evenodd" d="M9.99697 0.150105C10.2454 0.369347 10.2691 0.748506 10.0499 0.99698L1.40017 10.8L10.0499 20.603C10.2691 20.8515 10.2454 21.2307 9.99697 21.4499C9.7485 21.6692 9.36934 21.6455 9.1501 21.397L0.150097 11.197C-0.0500324 10.9702 -0.0500324 10.6298 0.150097 10.403L9.1501 0.203034C9.36934 -0.0454402 9.7485 -0.0691376 9.99697 0.150105Z" fill="black" fill-opacity="0.2"/>
<path fill-rule="evenodd" clip-rule="evenodd" d="M9.99697 0.150105C10.2454 0.369347 10.2691 0.748506 10.0499 0.99698L1.40017 10.8L10.0499 20.603C10.2691 20.8515 10.2454 21.2307 9.99697 21.4499C9.7485 21.6692 9.36934 21.6455 9.1501 21.397L0.150097 11.197C-0.0500324 10.9702 -0.0500324 10.6298 0.150097 10.403L9.1501 0.203034C9.36934 -0.0454402 9.7485 -0.0691376 9.99697 0.150105Z" fill="black" fill-opacity="0.2"/>
<path fill-rule="evenodd" clip-rule="evenodd" d="M9.99697 0.150105C10.2454 0.369347 10.2691 0.748506 10.0499 0.99698L1.40017 10.8L10.0499 20.603C10.2691 20.8515 10.2454 21.2307 9.99697 21.4499C9.7485 21.6692 9.36934 21.6455 9.1501 21.397L0.150097 11.197C-0.0500324 10.9702 -0.0500324 10.6298 0.150097 10.403L9.1501 0.203034C9.36934 -0.0454402 9.7485 -0.0691376 9.99697 0.150105Z" fill="black" fill-opacity="0.2"/>
<path fill-rule="evenodd" clip-rule="evenodd" d="M9.99697 0.150105C10.2454 0.369347 10.2691 0.748506 10.0499 0.99698L1.40017 10.8L10.0499 20.603C10.2691 20.8515 10.2454 21.2307 9.99697 21.4499C9.7485 21.6692 9.36934 21.6455 9.1501 21.397L0.150097 11.197C-0.0500324 10.9702 -0.0500324 10.6298 0.150097 10.403L9.1501 0.203034C9.36934 -0.0454402 9.7485 -0.0691376 9.99697 0.150105Z" fill="black" fill-opacity="0.2"/>
</svg>
