<svg width="18" height="19" viewBox="0 0 18 19" fill="none" xmlns="http://www.w3.org/2000/svg">
<path d="M7.2 0C5.608 0 4.32 1.30727 4.32 2.92308V5.11538H2.88C1.288 5.11538 0 6.42265 0 8.03846V16.0769C0 17.6927 1.288 19 2.88 19H10.8C12.392 19 13.68 17.6927 13.68 16.0769V13.8846H15.12C16.712 13.8846 18 12.5774 18 10.9615V2.92308C18 1.30727 16.712 0 15.12 0H7.2ZM12.24 13.8846V16.0769C12.24 16.8848 11.596 17.5385 10.8 17.5385H2.88C2.084 17.5385 1.44 16.8848 1.44 16.0769V8.03846C1.44 7.23056 2.084 6.57692 2.88 6.57692H4.32V10.9615C4.32 12.5774 5.608 13.8846 7.2 13.8846H12.24ZM5.76 2.92308C5.76 2.11517 6.404 1.46154 7.2 1.46154H15.12C15.916 1.46154 16.56 2.11517 16.56 2.92308V10.9615C16.56 11.7694 15.916 12.4231 15.12 12.4231H7.2C6.404 12.4231 5.76 11.7694 5.76 10.9615V2.92308Z" fill="#D19A3A"/>
</svg>
